<?xml version="1.0" encoding="UTF-8"?>
<svg xmlns="http://www.w3.org/2000/svg" id="a" width="865.76" height="682.89" viewBox="0 0 865.76 682.89">
  <g>
    <g>
      <rect x="224.53" y="125.66" width="46.15" height="166.75" fill="#98cfe4"></rect>
      <rect x="447.73" y="186.31" width="74.34" height="106.1" fill="#98cfe4"></rect>
      <rect x="472.41" y="142.8" width="32.93" height="64.41" fill="#98cfe4"></rect>
      <rect x="370.61" y="139.95" width="37.77" height="10.33" fill="#98cfe4"></rect>
      <rect x="223.55" y="111.42" width="48.1" height="6.56" fill="#98cfe4"></rect>
      <polygon points="598 292.36 598 199.51 564.28 212.65 564.28 292.36 598 292.36" fill="#98cfe4"></polygon>
      <rect x="408.01" y="98.11" width="44.44" height="194.3" fill="#98cfe4"></rect>
      <rect x="415.46" y="78.3" width="29.9" height="76.3" fill="#98cfe4"></rect>
      <rect x="428.64" y="47.28" width="3.54" height="67.54" fill="#98cfe4"></rect>
      <rect x="263.08" y="116.19" width="4.01" height="36.9" fill="#98cfe4"></rect>
      <rect x="254.34" y="116.19" width="4.01" height="36.9" fill="#98cfe4"></rect>
      <rect x="245.6" y="116.19" width="4.01" height="36.9" fill="#98cfe4"></rect>
      <rect x="236.84" y="116.19" width="4.01" height="36.9" fill="#98cfe4"></rect>
      <rect x="228.11" y="116.19" width="4.01" height="36.9" fill="#98cfe4"></rect>
      <rect x="374.4" y="146.56" width="67.24" height="145.85" fill="#98cfe4"></rect>
      <rect x="264.93" y="213.08" width="39.22" height="79.33" fill="#98cfe4"></rect>
      <polygon points="809.35 292.36 809.35 223.47 762.93 225.12 762.93 292.36 809.35 292.36" fill="#98cfe4"></polygon>
      <polygon points="798.45 232.49 771.58 232.49 771.58 206.42 785.01 193.8 798.45 206.42 798.45 232.49" fill="#98cfe4"></polygon>
      <polygon points="127.48 292.36 127.48 214.88 68.14 216.74 68.14 292.36 127.48 292.36" fill="#98cfe4"></polygon>
      <polygon points="127.48 264.57 127.48 192.85 75.68 194.57 75.68 264.57 127.48 264.57" fill="#98cfe4"></polygon>
      <rect x="593.99" y="182.25" width="77.58" height="110.36" fill="#98cfe4"></rect>
      <rect x="598" y="171.22" width="53.46" height="20.39" fill="#98cfe4"></rect>
      <polygon points="641.3 196.82 604.15 196.82 604.15 162.32 622.72 145.62 641.3 162.32 641.3 196.82" fill="#98cfe4"></polygon>
      <polygon points="355.83 292.41 355.83 146.55 317.45 154.34 317.45 292.41 355.83 292.41" fill="#98cfe4"></polygon>
      <polygon points="229.8 292.41 229.8 127.87 191.42 136.64 191.42 292.41 229.8 292.41" fill="#98cfe4"></polygon>
      <polygon points="336.64 292.41 336.64 186 298.25 179.79 298.25 292.41 336.64 292.41" fill="#98cfe4"></polygon>
      <rect x="682.5" y="99.5" width="3.1" height="18.86" fill="#98cfe4"></rect>
      <rect x="675.38" y="103.83" width="3.1" height="18.86" fill="#98cfe4"></rect>
      <rect x="695.3" y="103.83" width="3.1" height="18.86" fill="#98cfe4"></rect>
      <polygon points="715.69 292.36 715.69 117.57 659.45 118.42 659.45 292.36 715.69 292.36" fill="#98cfe4"></polygon>
      <polygon points="565.6 292.41 565.6 164.58 509.94 125.23 509.94 292.41 565.6 292.41" fill="#98cfe4"></polygon>
      <rect x="711.11" y="165.73" width="52.28" height="126.63" fill="#98cfe4"></rect>
      <rect x="711.11" y="157.87" width="42.48" height="47.33" fill="#98cfe4"></rect>
      <rect x="721.39" y="146" width="23.95" height="20.63" fill="#98cfe4"></rect>
      <rect x="125.08" y="174.02" width="68.43" height="118.34" fill="#98cfe4"></rect>
      <rect x="137.9" y="166.68" width="55.61" height="44.23" fill="#98cfe4"></rect>
      <rect x="148.7" y="155.58" width="31.36" height="19.28" fill="#98cfe4"></rect>
      <rect x="234.92" y="135.33" width="27.11" height="5.02" fill="#fff"></rect>
      <rect x="234.92" y="147.82" width="27.11" height="5.01" fill="#fff"></rect>
      <rect x="234.92" y="160.3" width="27.11" height="5.01" fill="#fff"></rect>
      <rect x="234.92" y="172.79" width="27.11" height="5.02" fill="#fff"></rect>
      <rect x="234.92" y="185.28" width="27.11" height="5.02" fill="#fff"></rect>
      <rect x="234.92" y="197.77" width="27.11" height="5.01" fill="#fff"></rect>
      <rect x="234.92" y="210.25" width="27.11" height="5.02" fill="#fff"></rect>
      <rect x="234.92" y="222.74" width="27.11" height="5.01" fill="#fff"></rect>
      <rect x="234.92" y="235.23" width="27.11" height="5.02" fill="#fff"></rect>
      <rect x="234.92" y="247.72" width="27.11" height="5.02" fill="#fff"></rect>
      <rect x="234.92" y="260.21" width="27.11" height="5.01" fill="#fff"></rect>
      <rect x="416.43" y="107.21" width="27.65" height="2.91" fill="#fff"></rect>
      <rect x="416.43" y="114.48" width="27.65" height="2.91" fill="#fff"></rect>
      <rect x="416.43" y="121.73" width="27.65" height="2.91" fill="#fff"></rect>
      <rect x="416.43" y="128.99" width="27.65" height="2.92" fill="#fff"></rect>
      <rect x="416.43" y="136.26" width="27.65" height="2.91" fill="#fff"></rect>
      <rect x="416.43" y="143.51" width="27.65" height="2.91" fill="#fff"></rect>
      <rect x="416.43" y="150.77" width="27.65" height="2.91" fill="#fff"></rect>
      <rect x="416.43" y="158.03" width="27.65" height="2.91" fill="#fff"></rect>
      <rect x="416.43" y="165.29" width="27.65" height="2.91" fill="#fff"></rect>
      <rect x="416.43" y="172.55" width="27.65" height="2.91" fill="#fff"></rect>
      <rect x="416.43" y="179.8" width="27.65" height="2.92" fill="#fff"></rect>
      <rect x="416.43" y="186.49" width="27.65" height="2.92" fill="#fff"></rect>
      <rect x="416.43" y="193.74" width="27.65" height="2.91" fill="#fff"></rect>
      <rect x="416.43" y="201" width="27.65" height="2.92" fill="#fff"></rect>
      <rect x="416.43" y="208.27" width="27.65" height="2.91" fill="#fff"></rect>
      <rect x="416.43" y="215.52" width="27.65" height="2.91" fill="#fff"></rect>
      <rect x="416.43" y="222.78" width="27.65" height="2.91" fill="#fff"></rect>
      <rect x="416.43" y="230.03" width="27.65" height="2.92" fill="#fff"></rect>
      <rect x="416.43" y="237.3" width="27.65" height="2.92" fill="#fff"></rect>
      <rect x="416.43" y="244.56" width="27.65" height="2.92" fill="#fff"></rect>
      <rect x="416.43" y="251.81" width="27.65" height="2.91" fill="#fff"></rect>
      <rect x="416.43" y="259.08" width="27.65" height="2.91" fill="#fff"></rect>
      <rect x="381.14" y="157.17" width="6.99" height="3.08" fill="#fff"></rect>
      <rect x="381.14" y="168.62" width="6.99" height="3.08" fill="#fff"></rect>
      <rect x="381.14" y="180.07" width="6.99" height="3.08" fill="#fff"></rect>
      <rect x="381.14" y="191.53" width="6.99" height="3.08" fill="#fff"></rect>
      <rect x="381.14" y="202.97" width="6.99" height="3.08" fill="#fff"></rect>
      <rect x="381.14" y="214.42" width="6.99" height="3.08" fill="#fff"></rect>
      <rect x="381.14" y="225.87" width="6.99" height="3.08" fill="#fff"></rect>
      <rect x="381.14" y="237.32" width="6.99" height="3.08" fill="#fff"></rect>
      <rect x="381.14" y="248.77" width="6.99" height="3.08" fill="#fff"></rect>
      <rect x="381.14" y="260.22" width="6.99" height="3.08" fill="#fff"></rect>
      <rect x="381.14" y="271.67" width="6.99" height="3.08" fill="#fff"></rect>
      <rect x="391.39" y="157.17" width="6.99" height="3.08" fill="#fff"></rect>
      <rect x="391.39" y="168.62" width="6.99" height="3.08" fill="#fff"></rect>
      <rect x="391.39" y="180.07" width="6.99" height="3.08" fill="#fff"></rect>
      <rect x="391.39" y="191.53" width="6.99" height="3.08" fill="#fff"></rect>
      <rect x="391.39" y="202.97" width="6.99" height="3.08" fill="#fff"></rect>
      <rect x="391.39" y="214.42" width="6.99" height="3.08" fill="#fff"></rect>
      <rect x="391.39" y="225.87" width="6.99" height="3.08" fill="#fff"></rect>
      <rect x="391.39" y="237.32" width="6.99" height="3.08" fill="#fff"></rect>
      <rect x="391.39" y="248.77" width="6.99" height="3.08" fill="#fff"></rect>
      <rect x="391.39" y="260.22" width="6.99" height="3.08" fill="#fff"></rect>
      <rect x="391.39" y="271.67" width="6.99" height="3.08" fill="#fff"></rect>
      <rect x="401.62" y="157.17" width="6.99" height="3.08" fill="#fff"></rect>
      <rect x="401.62" y="168.62" width="6.99" height="3.08" fill="#fff"></rect>
      <rect x="401.62" y="180.07" width="6.99" height="3.08" fill="#fff"></rect>
      <rect x="401.62" y="191.53" width="6.99" height="3.08" fill="#fff"></rect>
      <rect x="401.62" y="202.97" width="6.99" height="3.08" fill="#fff"></rect>
      <rect x="401.62" y="214.42" width="6.99" height="3.08" fill="#fff"></rect>
      <rect x="401.62" y="225.87" width="6.99" height="3.08" fill="#fff"></rect>
      <rect x="401.62" y="237.32" width="6.99" height="3.08" fill="#fff"></rect>
      <rect x="401.62" y="248.77" width="6.99" height="3.08" fill="#fff"></rect>
      <rect x="401.62" y="260.22" width="6.99" height="3.08" fill="#fff"></rect>
      <rect x="401.62" y="271.67" width="6.99" height="3.08" fill="#fff"></rect>
      <rect x="605.92" y="179.4" width="7.36" height="2.45" fill="#fff"></rect>
      <rect x="605.92" y="188.54" width="7.36" height="2.45" fill="#fff"></rect>
      <rect x="605.92" y="197.68" width="7.36" height="2.45" fill="#fff"></rect>
      <rect x="605.92" y="206.82" width="7.36" height="2.45" fill="#fff"></rect>
      <rect x="605.92" y="215.95" width="7.36" height="2.45" fill="#fff"></rect>
      <rect x="605.92" y="225.09" width="7.36" height="2.45" fill="#fff"></rect>
      <rect x="605.92" y="234.23" width="7.36" height="2.45" fill="#fff"></rect>
      <rect x="605.92" y="243.37" width="7.36" height="2.45" fill="#fff"></rect>
      <rect x="605.92" y="252.51" width="7.36" height="2.45" fill="#fff"></rect>
      <rect x="605.92" y="261.64" width="7.36" height="2.45" fill="#fff"></rect>
      <rect x="605.92" y="270.79" width="7.36" height="2.45" fill="#fff"></rect>
      <rect x="621.72" y="179.4" width="7.36" height="2.45" fill="#fff"></rect>
      <rect x="621.72" y="188.54" width="7.36" height="2.45" fill="#fff"></rect>
      <rect x="621.72" y="197.68" width="7.36" height="2.45" fill="#fff"></rect>
      <rect x="621.72" y="206.82" width="7.36" height="2.45" fill="#fff"></rect>
      <rect x="621.72" y="215.95" width="7.36" height="2.45" fill="#fff"></rect>
      <rect x="621.72" y="225.09" width="7.36" height="2.45" fill="#fff"></rect>
      <rect x="621.72" y="234.23" width="7.36" height="2.45" fill="#fff"></rect>
      <rect x="621.72" y="243.37" width="7.36" height="2.45" fill="#fff"></rect>
      <rect x="621.72" y="252.51" width="7.36" height="2.45" fill="#fff"></rect>
      <rect x="621.72" y="261.64" width="7.36" height="2.45" fill="#fff"></rect>
      <rect x="621.72" y="270.79" width="7.36" height="2.45" fill="#fff"></rect>
      <rect x="637.52" y="179.4" width="7.36" height="2.45" fill="#fff"></rect>
      <rect x="637.52" y="188.54" width="7.36" height="2.45" fill="#fff"></rect>
      <rect x="637.52" y="197.68" width="7.36" height="2.45" fill="#fff"></rect>
      <rect x="637.52" y="206.82" width="7.36" height="2.45" fill="#fff"></rect>
      <rect x="637.52" y="215.95" width="7.36" height="2.45" fill="#fff"></rect>
      <rect x="637.52" y="225.09" width="7.36" height="2.45" fill="#fff"></rect>
      <rect x="637.52" y="234.23" width="7.36" height="2.45" fill="#fff"></rect>
      <rect x="637.52" y="243.37" width="7.36" height="2.45" fill="#fff"></rect>
      <rect x="637.52" y="252.51" width="7.36" height="2.45" fill="#fff"></rect>
      <rect x="637.52" y="261.64" width="7.36" height="2.45" fill="#fff"></rect>
      <rect x="637.52" y="270.79" width="7.36" height="2.45" fill="#fff"></rect>
      <rect x="516.12" y="179.4" width="7.36" height="2.45" fill="#fff"></rect>
      <rect x="516.12" y="188.54" width="7.36" height="2.45" fill="#fff"></rect>
      <rect x="516.12" y="197.68" width="7.36" height="2.45" fill="#fff"></rect>
      <rect x="516.12" y="206.82" width="7.36" height="2.45" fill="#fff"></rect>
      <rect x="516.12" y="215.95" width="7.36" height="2.45" fill="#fff"></rect>
      <rect x="516.12" y="225.09" width="7.36" height="2.45" fill="#fff"></rect>
      <rect x="516.12" y="234.23" width="7.36" height="2.45" fill="#fff"></rect>
      <rect x="516.12" y="243.37" width="7.36" height="2.45" fill="#fff"></rect>
      <rect x="516.12" y="252.51" width="7.36" height="2.45" fill="#fff"></rect>
      <rect x="516.12" y="261.64" width="7.36" height="2.45" fill="#fff"></rect>
      <rect x="516.12" y="270.79" width="7.36" height="2.45" fill="#fff"></rect>
      <rect x="531.91" y="179.4" width="7.36" height="2.45" fill="#fff"></rect>
      <rect x="531.91" y="188.54" width="7.36" height="2.45" fill="#fff"></rect>
      <rect x="531.91" y="197.68" width="7.36" height="2.45" fill="#fff"></rect>
      <rect x="531.91" y="206.82" width="7.36" height="2.45" fill="#fff"></rect>
      <rect x="531.91" y="215.95" width="7.36" height="2.45" fill="#fff"></rect>
      <rect x="531.91" y="225.09" width="7.36" height="2.45" fill="#fff"></rect>
      <rect x="531.91" y="234.23" width="7.36" height="2.45" fill="#fff"></rect>
      <rect x="531.91" y="243.37" width="7.36" height="2.45" fill="#fff"></rect>
      <rect x="531.91" y="252.51" width="7.36" height="2.45" fill="#fff"></rect>
      <rect x="531.91" y="261.64" width="7.36" height="2.45" fill="#fff"></rect>
      <rect x="531.91" y="270.79" width="7.36" height="2.45" fill="#fff"></rect>
      <rect x="547.72" y="179.4" width="7.36" height="2.45" fill="#fff"></rect>
      <rect x="547.72" y="188.54" width="7.36" height="2.45" fill="#fff"></rect>
      <rect x="547.72" y="197.68" width="7.36" height="2.45" fill="#fff"></rect>
      <rect x="547.72" y="206.82" width="7.36" height="2.45" fill="#fff"></rect>
      <rect x="547.72" y="215.95" width="7.36" height="2.45" fill="#fff"></rect>
      <rect x="547.72" y="225.09" width="7.36" height="2.45" fill="#fff"></rect>
      <rect x="547.72" y="234.23" width="7.36" height="2.45" fill="#fff"></rect>
      <rect x="547.72" y="243.37" width="7.36" height="2.45" fill="#fff"></rect>
      <rect x="547.72" y="252.51" width="7.36" height="2.45" fill="#fff"></rect>
      <rect x="547.72" y="261.64" width="7.36" height="2.45" fill="#fff"></rect>
      <rect x="547.72" y="270.79" width="7.36" height="2.45" fill="#fff"></rect>
      <rect x="669.56" y="130.2" width="39.5" height="3.08" fill="#fff"></rect>
      <rect x="669.56" y="141.4" width="39.5" height="3.08" fill="#fff"></rect>
      <rect x="669.56" y="152.6" width="39.5" height="3.08" fill="#fff"></rect>
      <rect x="669.56" y="163.79" width="39.5" height="3.08" fill="#fff"></rect>
      <rect x="669.56" y="174.99" width="39.5" height="3.08" fill="#fff"></rect>
      <rect x="669.56" y="186.18" width="39.5" height="3.08" fill="#fff"></rect>
      <rect x="669.56" y="197.39" width="39.5" height="3.08" fill="#fff"></rect>
      <rect x="669.56" y="208.58" width="39.5" height="3.08" fill="#fff"></rect>
      <rect x="669.56" y="219.78" width="39.5" height="3.08" fill="#fff"></rect>
      <rect x="669.56" y="230.98" width="39.5" height="3.08" fill="#fff"></rect>
      <rect x="669.56" y="242.17" width="39.5" height="3.08" fill="#fff"></rect>
      <rect x="54.21" y="18.08" width="771" height="274.32" fill="#fff" opacity=".3"></rect>
      <rect x="54.21" y="83.54" width="771" height="11.43" fill="#fff" stroke="#231f20" stroke-miterlimit="10"></rect>
      <rect x="168.51" y="18.08" width="9.35" height="274.32" fill="#fff" stroke="#231f20" stroke-miterlimit="10"></rect>
      <rect x="278.65" y="18.08" width="9.35" height="274.32" fill="#fff" stroke="#231f20" stroke-miterlimit="10"></rect>
      <rect x="388.79" y="18.08" width="9.35" height="274.32" fill="#fff" stroke="#231f20" stroke-miterlimit="10"></rect>
      <rect x="498.93" y="18.08" width="9.35" height="274.32" fill="#fff" stroke="#231f20" stroke-miterlimit="10"></rect>
      <rect x="609.08" y="18.08" width="9.35" height="274.32" fill="#fff" stroke="#231f20" stroke-miterlimit="10"></rect>
      <rect x="719.22" y="18.08" width="9.35" height="274.32" fill="#fff" stroke="#231f20" stroke-miterlimit="10"></rect>
      <rect x="118.63" y="67.95" width="111.18" height="6.23" rx="2.91" ry="2.91" fill="#e3e4e5" stroke="#231f20" stroke-miterlimit="10"></rect>
      <line x1="125.22" y1="66.77" x2="125.22" y2="17.98" fill="none" stroke="#231f20" stroke-linecap="round" stroke-linejoin="round"></line>
      <line x1="224.27" y1="67.06" x2="224.27" y2="17.98" fill="none" stroke="#231f20" stroke-linecap="round" stroke-linejoin="round"></line>
      <rect x="659.99" y="66.91" width="111.18" height="6.23" rx="2.91" ry="2.91" fill="#fff" stroke="#231f20" stroke-miterlimit="10"></rect>
      <path d="M45.37,9.76V300.71H834.04V9.76H45.37ZM825.21,292.4H54.21V18.08H825.21V292.4Z" fill="#fff" stroke="#231f20" stroke-miterlimit="10"></path>
      <rect x="121.75" y="66.91" width="105.99" height="5.2" rx="2.6" ry="2.6" fill="#5ca0c3" stroke="#231f20" stroke-miterlimit="10"></rect>
      <line x1="666.59" y1="65.73" x2="666.59" y2="16.94" fill="none" stroke="#231f20" stroke-linecap="round" stroke-linejoin="round"></line>
      <line x1="765.63" y1="66.02" x2="765.63" y2="16.94" fill="none" stroke="#231f20" stroke-linecap="round" stroke-linejoin="round"></line>
      <rect x="663.11" y="65.88" width="105.99" height="5.2" rx="2.6" ry="2.6" fill="#5ca0c3" stroke="#231f20" stroke-miterlimit="10"></rect>
    </g>
    <g>
      <path d="M391.33,532.57c62.5-32.9,94.53-122.27,61.22-224-30.95-94.54-103.44-157.06-167.4-147.8,0,0-181.95,13.48-207.73,162,0,0-24.39,175.97,119.94,230.23,8.17,3.07,16.7,5.12,25.37,6.13,29.28,3.41,103.78,7.57,168.61-26.55Z" fill="#e3e4e5" stroke="#231f20" stroke-miterlimit="10"></path>
      <ellipse cx="332.32" cy="344.42" rx="120.2" ry="182.19" transform="translate(-90.67 120.51) rotate(-18.13)" fill="#fff" stroke="#231f20" stroke-miterlimit="10"></ellipse>
      <path d="M220.77,380.94c.51,1.57,1.04,3.12,1.58,4.67,.18,.52,.36,1.03,.54,1.54,.18,.51,.37,1.03,.55,1.54,.18,.51,.37,1.02,.56,1.53,.38,1.02,.75,2.03,1.14,3.04,.19,.5,.39,1.01,.58,1.51,.2,.5,.39,1,.59,1.5,.2,.5,.4,1,.6,1.5,.2,.5,.4,.99,.6,1.49,.2,.5,.41,.99,.61,1.48,.41,.99,.83,1.97,1.24,2.94,.21,.49,.42,.98,.63,1.46,.21,.48,.43,.97,.64,1.45,.19,.42,.37,.84,.56,1.25,.25,.55,.49,1.09,.74,1.64l.45,.98c.12,.26,.24,.52,.37,.78,.22,.48,.45,.96,.68,1.43,.18,.37,.35,.74,.53,1.11,.22,.46,.45,.92,.67,1.38,.23,.47,.46,.94,.69,1.4,.16,.32,.32,.64,.48,.96,.13,.27,.27,.54,.4,.8,.02,.03,.04,.07,.05,.11,.2,.4,.41,.8,.61,1.19,.2,.39,.4,.77,.6,1.16,.14,.28,.29,.56,.44,.83,.16,.31,.32,.61,.48,.91,.22,.41,.43,.82,.65,1.22,.07,.13,.14,.26,.21,.39,.2,.38,.41,.75,.61,1.13,.25,.46,.5,.91,.75,1.36,.22,.4,.44,.79,.66,1.19,.08,.14,.16,.28,.24,.42,.2,.36,.41,.73,.62,1.09,.23,.42,.47,.83,.71,1.24,1.11,1.93,2.25,3.83,3.4,5.71,.17,.27,.33,.54,.5,.81,.05,.08,.1,.16,.14,.24,.25,.4,.5,.8,.75,1.19,.22,.36,.45,.71,.68,1.07,.22,.35,.45,.71,.68,1.06,.21,.33,.42,.66,.63,.98,.21,.32,.42,.64,.63,.97,.15,.24,.31,.47,.47,.71,.26,.38,.51,.77,.77,1.15,.19,.29,.39,.58,.59,.88,.04,.06,.08,.13,.13,.19,.18,.27,.36,.53,.54,.8,.19,.28,.38,.55,.57,.83,.23,.33,.46,.67,.69,1,.2,.29,.4,.58,.61,.86,.02,.03,.04,.06,.06,.09,.23,.33,.47,.66,.7,.98,.09,.13,.18,.25,.27,.37,.22,.31,.44,.61,.66,.91,.04,.06,.08,.11,.12,.16,.23,.31,.45,.62,.68,.93,.06,.09,.13,.17,.19,.26,.23,.32,.47,.64,.71,.96,.22,.3,.44,.59,.67,.89,.17,.23,.35,.46,.52,.69,.17,.22,.34,.44,.51,.66,.27,.35,.53,.69,.8,1.04,.19,.25,.39,.5,.58,.75,.09,.12,.18,.23,.27,.35,.2,.26,.41,.52,.61,.78,.24,.31,.49,.62,.74,.92,.22,.27,.43,.54,.65,.81,.3,.37,.6,.74,.9,1.1,.3,.36,.6,.73,.9,1.09,0,0,0,.01,.01,.02,.3,.36,.6,.72,.9,1.07,.29,.34,.58,.68,.86,1.02,.07,.08,.14,.16,.21,.24,.24,.28,.48,.56,.72,.83,.24,.28,.48,.55,.71,.82,.82,.94,1.65,1.87,2.49,2.79,.08,.08,.15,.17,.23,.25,2.88,3.16,5.81,6.17,8.81,9.05,33.04,31.77,72.43,46.12,107.56,34.62,61.6-20.17,86.76-112.22,56.18-205.59-30.57-93.37-105.3-152.72-166.9-132.55-27.52,9.01-47.77,32.37-59.02,63.77-1.21,3.38-2.32,6.85-3.32,10.42-4.17,14.85-6.5,31.18-6.82,48.43-.48,26.2,3.66,54.53,12.97,82.97Z" fill="#e3e4e5" stroke="#231f20" stroke-miterlimit="10"></path>
      <path d="M220.77,380.94c.51,1.57,1.04,3.12,1.58,4.67,.18,.52,.36,1.03,.54,1.54,.18,.51,.37,1.03,.55,1.54,.18,.51,.37,1.02,.56,1.53,.38,1.02,.75,2.03,1.14,3.04,.19,.5,.39,1.01,.58,1.51,.2,.5,.39,1,.59,1.5,.2,.5,.4,1,.6,1.5,.2,.5,.4,.99,.6,1.49,.2,.5,.41,.99,.61,1.48,.41,.99,.83,1.97,1.24,2.94,.21,.49,.42,.98,.63,1.46,.21,.48,.43,.97,.64,1.45,.19,.42,.37,.84,.56,1.25,.25,.55,.49,1.09,.74,1.64l.45,.98c.12,.26,.24,.52,.37,.78,.22,.48,.45,.96,.68,1.43,.18,.37,.35,.74,.53,1.11,.22,.46,.45,.92,.67,1.38,.23,.47,.46,.94,.69,1.4,.16,.32,.32,.64,.48,.96,.13,.27,.27,.54,.4,.8,.02,.03,.04,.07,.05,.11,.2,.4,.41,.8,.61,1.19,.2,.39,.4,.77,.6,1.16,.14,.28,.29,.56,.44,.83,.16,.31,.32,.61,.48,.91,.22,.41,.43,.82,.65,1.22,.07,.13,.14,.26,.21,.39,.2,.38,.41,.75,.61,1.13,.25,.46,.5,.91,.75,1.36,.22,.4,.44,.79,.66,1.19,.08,.14,.16,.28,.24,.42,.2,.36,.41,.73,.62,1.09,.23,.42,.47,.83,.71,1.24,1.11,1.93,2.25,3.83,3.4,5.71,.17,.27,.33,.54,.5,.81,.05,.08,.1,.16,.14,.24,.25,.4,.5,.8,.75,1.19,.22,.36,.45,.71,.68,1.07,.22,.35,.45,.71,.68,1.06,.21,.33,.42,.66,.63,.98,.21,.32,.42,.64,.63,.97,.15,.24,.31,.47,.47,.71,.26,.38,.51,.77,.77,1.15,.19,.29,.39,.58,.59,.88,.04,.06,.08,.13,.13,.19,.18,.27,.36,.53,.54,.8,.19,.28,.38,.55,.57,.83,.23,.33,.46,.67,.69,1,.2,.29,.4,.58,.61,.86,.02,.03,.04,.06,.06,.09,.23,.33,.47,.66,.7,.98,.09,.13,.18,.25,.27,.37,.22,.31,.44,.61,.66,.91,.04,.06,.08,.11,.12,.16,.23,.31,.45,.62,.68,.93,.06,.09,.13,.17,.19,.26,.23,.32,.47,.64,.71,.96,.22,.3,.44,.59,.67,.89,.17,.23,.35,.46,.52,.69,.17,.22,.34,.44,.51,.66,.27,.35,.53,.69,.8,1.04,.19,.25,.39,.5,.58,.75,.09,.12,.18,.23,.27,.35,.2,.26,.41,.52,.61,.78,.24,.31,.49,.62,.74,.92,.22,.27,.43,.54,.65,.81,.3,.37,.6,.74,.9,1.1,.3,.36,.6,.73,.9,1.09,0,0,0,.01,.01,.02,.3,.36,.6,.72,.9,1.07,.29,.34,.58,.68,.86,1.02,.07,.08,.14,.16,.21,.24,.24,.28,.48,.56,.72,.83,.24,.28,.48,.55,.71,.82,.82,.94,1.65,1.87,2.49,2.79,.08,.08,.15,.17,.23,.25,2.88,3.16,5.81,6.17,8.81,9.05,7.71,1.5,15.14,1.01,21.96-1.72,33.93-13.55,40.38-77.28,14.4-142.36-23.53-58.95-65.61-98.78-98.54-95.68-1.21,3.38-2.32,6.85-3.32,10.42-4.17,14.85-6.5,31.18-6.82,48.43-.48,26.2,3.66,54.53,12.97,82.97Z" fill="#fff" stroke="#231f20" stroke-miterlimit="10"></path>
      <path d="M220.77,380.94c11.06,33.79,27.91,63.12,47.82,85.84,1.75,.71,3.49,1.32,5.22,1.82,8.68,2.54,17.06,2.51,24.64-.52,31.32-12.51,37.27-71.33,13.29-131.4-23.23-58.18-66.01-96.17-97.14-87.15-4.17,14.85-6.5,31.18-6.82,48.43-.48,26.2,3.66,54.53,12.97,82.97Z" fill="#e3e4e5" stroke="#231f20" stroke-miterlimit="10"></path>
      <path d="M221.93,380.94c11.06,33.79,27.91,63.12,47.82,85.84-.61-.25-1.22-.5-1.83-.78,.23,.26,.45,.52,.68,.78,.82,.94,1.65,1.87,2.49,2.79,.08,.08,.15,.17,.23,.25,.31-.08,.62-.16,.93-.25,.79-.23,1.58-.5,2.35-.81,.13-.05,.26-.1,.38-.16,24.15-10.1,28.65-55.85,10-102.55-18.18-45.53-51.68-75.25-76.02-68.09-.48,26.2,3.66,54.53,12.97,82.97Z" fill="#fff" stroke="#231f20" stroke-miterlimit="10"></path>
      <path d="M211.12,341.62l24.34-15.42,32.53,16.18,10.95-1.62s5.23,2.64,10.24,3.87c.95,.23,1.91,.37,2.88,.47,2.1,.22,10.45,2.86,21.8,29.62l15.39,32.71,17.7,36.55s-29.24,15.2-36.36-8.85c0,0-12.12,6.73-19.82,9.23l2.5,4.81-31.94,8.85s-39.15-45.5-50.21-116.39Z" fill="#f7c27e" stroke="#231f20" stroke-miterlimit="10"></path>
      <polygon points="442.37 423.77 384.85 435.51 316.36 430.51 316.36 434.55 385.62 439.93 442.56 427.24 442.37 423.77" fill="#fff" stroke="#231f20" stroke-miterlimit="10"></polygon>
      <path d="M442.37,423.77s0-.58-2.12-1.15l-7.31-.77-111.39,6.35-5.02,2.23s-.03,.09,.02,.09l68.3,4.99,57.52-11.74Z" fill="#bcbec0" stroke="#231f20" stroke-miterlimit="10"></path>
      <ellipse cx="355.11" cy="297.17" rx="22.79" ry="28.64" transform="translate(-97.06 197.37) rotate(-27.48)" fill="#fff" stroke="#231f20" stroke-miterlimit="10"></ellipse>
      <path d="M393.7,621.84c0,10.78-44.87,19.53-99.27,19.53-54.4,0-98.5-8.74-98.5-19.53v-4.14s.06-.53,.34-1.31c1.12-3.08,4.08-5.09,7.35-5.09h182.79c3.87,0,7.14,3.01,7.28,6.88,0,.1,0,.2,0,.3v3.37Z" fill="#fff" stroke="#231f20" stroke-miterlimit="10"></path>
      <ellipse cx="295.1" cy="616.83" rx="97.64" ry="19.53" fill="#e3e4e5" stroke="#231f20" stroke-miterlimit="10"></ellipse>
      <path d="M302.39,413.8l-.46-2.92s5.08-19.44,3.74-40.8" fill="none" stroke="#231f20" stroke-linecap="round" stroke-linejoin="round"></path>
      <path d="M307.05,436.96s3.54,8.17,7.77,12.02c0,0-17.31,2.31-20.2,2.69,0,0-2.69-5-3.85-7.31,0,0,7.16-2.49,16.28-7.4Z" fill="#fff" stroke="#231f20" stroke-miterlimit="10"></path>
      <path d="M294.62,451.67s-14.62,2.89-23.47,5.39" fill="none" stroke="#ed1c24" stroke-miterlimit="10"></path>
      <path d="M437.95,612.12c15.85,14.27,32.19,.31,34.84-2.15,.23-.21,.39-.48,.49-.77,.76-2.29,3.15-4.01,3.15-4.01-8.27-5.77-17.12-27.51-17.12-27.51l-25.78,15.78c7.12,10.97,4.42,18.66,4.42,18.66Z" fill="#faa27f" stroke="#231f20" stroke-miterlimit="10"></path>
      <path d="M434.1,633.47c2.89,2.89,20.78,3.27,21.55,3.46,12.51,.38,20.2,3.66,20.2,3.66,9.62,5.39,20.2,4.42,20.2,4.42,24.63,.19,38.28-5.58,38.28-5.58,.19-7.12-25.2-9.43-25.2-9.43-9.24-2.24-16.64-10.94-19.5-14.75-1.49-1.99-3.17-3.84-5.04-5.48-5.52-4.85-8.16-4.59-8.16-4.59,0,0-2.4,1.71-3.15,4.01-.1,.29-.26,.56-.49,.77-2.64,2.46-18.98,16.42-34.84,2.15-6.93,8.66-3.85,21.35-3.85,21.35Z" fill="#f7c27e" stroke="#231f20" stroke-miterlimit="10"></path>
      <path d="M435.84,643.28l22.3,1.93c2.89-.16,2.83-2.33,2.73-3.05-.03-.2-.01-.42,.07-.6,1.12-2.39,8.95-.15,11.87,.78,.68,.22,1.33,.53,1.92,.92,2.62,1.72,5.2,2.96,6.75,3.64,.93,.41,1.91,.68,2.91,.82,26.64,3.73,47.38-3.47,50.93-4.81,.32-.12,.52-.44,.49-.78l-.14-1.55c-.38-1.73-1.35-1.15-1.35-1.15,0,0-13.66,5.77-38.28,5.58,0,0-10.58,.96-20.2-4.42,0,0-7.7-3.27-20.2-3.66-.77-.19-18.66-.58-21.55-3.46l-.3,7.48c-.05,1.19,.85,2.22,2.04,2.32Z" fill="#fff" stroke="#231f20" stroke-miterlimit="10"></path>
      <path d="M495.28,624.82l-13.47-14.81s-3.82-4.29-9.03-.03" fill="none" stroke="#231f20" stroke-linecap="round" stroke-linejoin="round"></path>
      <line x1="478.73" y1="610.58" x2="481.94" y2="607.75" fill="none" stroke="#231f20" stroke-linecap="round" stroke-linejoin="round"></line>
      <line x1="482.2" y1="613.27" x2="485.47" y2="610.58" fill="none" stroke="#231f20" stroke-linecap="round" stroke-linejoin="round"></line>
      <line x1="485.85" y1="615.78" x2="488.61" y2="614.14" fill="none" stroke="#231f20" stroke-linecap="round" stroke-linejoin="round"></line>
      <line x1="489.7" y1="619.82" x2="491.95" y2="618.24" fill="none" stroke="#231f20" stroke-linecap="round" stroke-linejoin="round"></line>
      <path d="M341.11,451.59l62.65-5.68c8.77-.8,16.97,4.46,19.91,12.76,10.55,29.81,35.03,97.84,44.87,114.97l-37.71,22.12s-36.17-74.45-39.44-98.5c0,0-16.28,10.62-31.13,10.12l-27.16-41.48,8.02-14.31Z" fill="#5ca0c3" stroke="#231f20" stroke-miterlimit="10"></path>
      <path d="M391.39,497.27s-.77-2.89-.58-14.24" fill="none" stroke="#231f20" stroke-linecap="round" stroke-linejoin="round"></path>
      <path d="M320.01,427.12v1.46c0,.22,.17,.4,.39,.42l56.54,4.35c.39,.03,.79,.03,1.18,0l2.91-.21c-.48-.54-.67-1.32-.36-2.09l-2.55,.18c-.4,.03-.8,.03-1.2,0l-56.47-4.53c-.25-.02-.46,.17-.46,.42Z" fill="#fff" stroke="#231f20" stroke-miterlimit="10"></path>
      <path d="M320.51,426.68l46.54-12.63,19.72,1.83-6.09,15.17s-2.03,.31-3.74,.17l-56.42-4.53s0-.01,0-.01Z" fill="#bcbec0" stroke="#231f20" stroke-miterlimit="10"></path>
      <path d="M393.76,399.05s-4.87-2.98-9.11-3.17h-1.07c-.82,0-1.61-.28-2.23-.82-.82-.73-2.24-1.68-4.01-1.68,0,0-2.5,.19-4.04,2.69,0,0-.58,1.15-3.66,2.12,0,0-4.04,.58-8.27,6.16l-4.81,2.69s-2.59,1.65-3.22,3.42l10.24,3.21,22.89,2.89,7.28-17.51Z" fill="#faa27f" stroke="#231f20" stroke-miterlimit="10"></path>
      <path d="M389.95,408.36c-.35-.58-.55-2.29-.63-3.14-.03-.33-.19-.64-.45-.85-.79-.65-1.53-2-2.98-2.15" fill="none" stroke="#231f20" stroke-linecap="round" stroke-linejoin="round"></path>
      <path d="M383.6,399.18s2.44,3.05,2.23,6.3c-.01,.19,0,.39,.02,.58,.14,1.47,.71,6.84,1.43,8.67l-1.63,4.18s-4.65-5.33-5.42-10.14c0,0-.48-4.47-1.83-5.43" fill="none" stroke="#231f20" stroke-linecap="round" stroke-linejoin="round"></path>
      <path d="M388.89,402.03s-.11,1.38,.43,3.19" fill="none" stroke="#231f20" stroke-linecap="round" stroke-linejoin="round"></path>
      <path d="M365.42,402.03l7.5,2.79c.51,.19,.97,.48,1.35,.86l5.09,5.02" fill="none" stroke="#231f20" stroke-linecap="round" stroke-linejoin="round"></path>
      <path d="M378.88,404.92s-.77-.77-2.12-.38c0,0-2.5,.96-5.39-.38" fill="none" stroke="#231f20" stroke-linecap="round" stroke-linejoin="round"></path>
      <path d="M357.2,406.61s-6.86-.15-7.9,4.01l4.04-.15s.83-2.17,3.85-3.85Z" fill="#f7c27e" stroke="#231f20" stroke-miterlimit="10"></path>
      <path d="M282.69,612.53v-61.59h25.2v61.86c0,1.56-.99,2.94-2.47,3.43-1.85,.61-5,1.18-10.23,1.08,0,0-5.89,.24-10.19-1.4-1.4-.53-2.31-1.88-2.31-3.38Z" fill="#fff" stroke="#231f20" stroke-miterlimit="10"></path>
      <path d="M242.11,313.43c.05-.07,3.93-17.88,3.93-17.88l10.58,4.42,15.2,35.78,.67,2.21s-1.45,1.64-5.3,0c0,0-29.78-18.01-25.09-24.54Z" fill="#faa27f" stroke="#231f20" stroke-miterlimit="10"></path>
      <path d="M257.93,351.61l9.27-13.63s-29.47-18.22-25.21-24.38c.04-.06,0-.15-.08-.14-.76,.15-3.62,1.21-6.3,8.57-.57,1.56-.55,3.3,.11,4.83,.36,.83,.89,1.83,1.68,3.02,.92,1.39,2,2.67,3.16,3.87l17.36,17.87Z" fill="#5ca0c3" stroke="#231f20" stroke-miterlimit="10"></path>
      <path d="M278.19,339.77c1.87,2.37,8.64,10.64,14.82,14.03,.36,.2,.28,.74-.12,.82-1.96,.41-5.98,.79-8.66-2.03,0,0-3.78-3.89-6.7-2.52l-.81-7.48s-.36-3.28-2.97-2.79l-1.17-1.69s-.18-.29-.13-.27c.48,.16,2.25,.85,4.44,1.18,.51,.08,.98,.35,1.3,.76Z" fill="#5ca0c3" stroke="#231f20" stroke-miterlimit="10"></path>
      <path d="M302.83,275l1.34,20.34c.05,.83-.08,1.66-.43,2.41-.56,1.22-1.75,2.83-4.33,3.91,0,0-.19,6.54-1.15,7.89,0,0,2.12,4.23-.58,5.77,0,0-3.5,13.06-8.7,18.68-1.39,1.5-3.3,2.41-5.34,2.6-6.03,.55-23.26-.31-29.25-26.47,0,0-.38-5.55-.48-8.84l6.64-33.49,20.01-9.04,22.27,16.24Z" fill="#faa27f" stroke="#231f20" stroke-miterlimit="10"></path>
      <path d="M269.93,287.4c-3.86,2.45-8.27,6.77-8.59,13.82l-5.19-1.35s-.74-5.37-3.56-10.87l-6.54,6.54-2.48,10.7-2.22-20.67c-.75-6.95,.54-14,3.86-20.15,4.15-7.7,12.11-15.4,27.29-14.61,0,0,23.81,.18,30.51,22.24,.88,2.91-2.62,5.19-4.91,3.2-.79-.69-1.64-1.69-2.52-3.12,0,0-7.5,2.31-10.2-4.42,0,0-2.31-6.35-9.43-3.08,0,0-4.63,1.54-2.15,12.54,.81,3.58-.78,7.26-3.88,9.23Z" fill="#231f20" stroke="#231f20" stroke-miterlimit="10"></path>
      <ellipse cx="250.95" cy="295.55" rx="4.91" ry="8.27" fill="#faa27f" stroke="#231f20" stroke-miterlimit="10"></ellipse>
      <line x1="298.25" y1="309.55" x2="296.25" y2="301.7" fill="none" stroke="#231f20" stroke-linecap="round" stroke-linejoin="round"></line>
      <path d="M297.68,315.32s-1.42,1.2-2.96,.04" fill="none" stroke="#231f20" stroke-linecap="round" stroke-linejoin="round"></path>
      <path d="M269.03,340.96s-1.47-.71-2.66-1.94l-2.76,4.29s1.76,1.01,4.45,.63c0,0-.77-1.72,.96-2.98Z" fill="#fff" stroke="#231f20" stroke-miterlimit="10"></path>
      <path d="M269.73,340.7c-.85,.19-1.55,.84-1.74,1.69-.49,2.16,1.81,4.82,1.81,4.82,.61,.73,1.29,2.93,1.72,4.44,.22,.79,.31,1.62,.27,2.44-.06,1.29,.32,2.55,.32,2.55l5.67,19.59c.43,1.48,.72,2.99,.88,4.52,.96,8.93,3.26,18.79,3.26,18.79,1.73,7.31,2.89,18.08,2.89,18.08l13.66-2.89-6.54-22.32c-3.08-11.93-6.93-18.66-6.93-18.66-3.78-6.87-5.56-15.58-5.9-17.37-.04-.21-.07-.42-.08-.63-.14-1.52-.54-2.69-.86-3.43s-.53-1.48-.62-2.26l-.76-6.62c-.05-1.19-.29-2-.59-2.57-.47-.86-1.47-1.3-2.43-1.09l-4.02,.91Z" fill="#fff" stroke="#231f20" stroke-miterlimit="10"></path>
      <path d="M272.45,337.83l1.31,1.96-3.5,.82s-.93,.16-1.22,.35c0,0-1.44-.58-2.66-1.94l.82-1.04s2.81,1.35,5.25-.15Z" fill="#f7c27e" stroke="#231f20" stroke-miterlimit="10"></path>
      <path d="M359.26,615.01c1.63,4.9,1.55,9.11,1.42,10.78-.04,.61-.03,1.22,.07,1.82,1.64,10.34,8.32,5.11,8.32,5.11,2.56-3.16,5.94-5.03,7.29-5.69,.39-.19,.72-.48,.96-.84,5.38-8.16,13.11-5.59,13.11-5.59l-1.73-4.42c-.82-2.93-2.08-5.64-3.18-7.68-.89-1.65-1.91-3.23-3.05-4.72-3.82-4.98-5.48-10.62-5.48-10.62l-23.55,9.01,5.82,12.85Z" fill="#faa27f" stroke="#231f20" stroke-miterlimit="10"></path>
      <path d="M293.27,449.17l1.35,2.5,29.44-4.04s22.12-4.81,29.05,24.63l30.3,119.57-36.65,12.79-19.43-53.68s-11.54-24.05-12.7-46.56c0,0-29.15-14.33-53.39-46.46l32.03-8.75Z" fill="#5ca0c3" stroke="#231f20" stroke-miterlimit="10"></path>
      <path d="M314.63,504.96s-.77-15.97-4.42-20.97" fill="none" stroke="#231f20" stroke-linecap="round" stroke-linejoin="round"></path>
      <path d="M355.99,648.67l9.81,4.62c3.3,1.02,5.59,3.79,6.77,5.56,.45,.68,.8,1.41,1.12,2.16,2.52,6.06,20.39,7.86,20.39,7.86,19.05,2.31,34.05-2.69,34.05-2.69,.01-.19,.02-.39,0-.58-.17-5.08-7.32-8.66-7.32-8.66-15.01-11.16-16.74-16.93-16.74-16.93-6.16-10.97-13.66-19.43-13.66-19.43,0,0-7.73-2.58-13.11,5.59-.24,.36-.57,.65-.96,.84-1.35,.66-4.73,2.53-7.29,5.69,0,0-6.68,5.24-8.32-5.11-.09-.6-.11-1.21-.07-1.82l-4.12,10.77c-2.89,6.16-.58,12.12-.58,12.12Z" fill="#f7c27e" stroke="#231f20" stroke-miterlimit="10"></path>
      <path d="M356.56,658.2l8.86,3.75,6.16-1.35c.58,.77,1.54,4.23,1.54,4.23,2.31,5.58,15.58,6.73,15.58,6.73,22.51,4.62,40.98-2.5,40.98-2.5l-.19-2.5c-.18-1.27-1.23-1-1.34-.96,0,.19,0,.38,0,.58,0,0-15.01,5-34.05,2.69,0,0-17.87-1.8-20.39-7.86-.31-.75-.66-1.48-1.12-2.16-1.18-1.77-3.47-4.54-6.77-5.56l-9.81-4.62-.5,7.8c-.05,.75,.38,1.44,1.07,1.73Z" fill="#fff" stroke="#231f20" stroke-miterlimit="10"></path>
      <path d="M395.04,626.16s-.96-.77-.58,1.54l5.19,15.97" fill="none" stroke="#231f20" stroke-linecap="round" stroke-linejoin="round"></path>
      <path d="M398.7,644.25l-13.08-16.93s-2.69-3.46-8.66-.58" fill="none" stroke="#231f20" stroke-linecap="round" stroke-linejoin="round"></path>
      <line x1="394.47" y1="625.39" x2="381" y2="628.67" fill="none" stroke="#231f20" stroke-linecap="round" stroke-linejoin="round"></line>
      <line x1="383.69" y1="632.13" x2="396.58" y2="628.28" fill="none" stroke="#231f20" stroke-linecap="round" stroke-linejoin="round"></line>
      <line x1="398.95" y1="631.65" x2="386.39" y2="635.4" fill="none" stroke="#231f20" stroke-linecap="round" stroke-linejoin="round"></line>
      <path d="M400.43,635.59c0,.19-10.77,3.46-10.77,3.46" fill="none" stroke="#231f20" stroke-linecap="round" stroke-linejoin="round"></path>
      <line x1="401.97" y1="639.63" x2="392.16" y2="642.9" fill="none" stroke="#231f20" stroke-linecap="round" stroke-linejoin="round"></line>
      <path d="M365.42,661.95v-4.95c0-.11,.12-.17,.21-.11l5.87,3.67s.02,.06-.01,.07l-6.06,1.33Z" fill="#231f20" stroke="#231f20" stroke-miterlimit="10"></path>
      <line x1="362.72" y1="409.34" x2="367.73" y2="414.54" fill="none" stroke="#231f20" stroke-linecap="round" stroke-linejoin="round"></line>
      <path d="M258.93,452.34c10.51-.23,31.84-7.98,31.84-7.98,13.85-5.39,26.84-11.64,26.84-11.64l-4.23-23.86s-28.17,10.79-51.51,9.9c-3.14-.12-6.06-1.61-7.99-4.09-4.86-6.24-14.46-19.72-20.44-35.72" fill="#f7c27e" stroke="#231f20" stroke-miterlimit="10"></path>
      <path d="M381.04,433.14c.45,.51,1.15,.79,1.91,.63l53.39-11.14c.64-.13,1.18-.57,1.43-1.17l25.53-59.51c.61-1.42-.55-2.97-2.09-2.78l-52.89,6.54c-.72,.09-1.34,.56-1.61,1.24l-26.04,64.1c-.31,.77-.12,1.55,.36,2.09Z" fill="#5ca0c3" stroke="#231f20" stroke-miterlimit="10"></path>
      <path d="M427.84,432.04l-8.63,9.41c-.94,1.03-2.18,1.75-3.53,2.07l-34.87,8.18c-1.33,.31-2.69,.42-4.05,.32l-29.72-2.23c-2.74-.21-5.35-1.25-7.47-2.99l-12.31-10.09c-.6-.49-.21-1.45,.56-1.39l57.91,4.54,41.37-9.12c.75-.17,1.27,.73,.75,1.3Z" fill="#bcbec0" stroke="#231f20" stroke-miterlimit="10"></path>
      <path d="M385.8,418.2l-2.21,5.76-8.51-4.98c-.65-.38-1.41-.53-2.16-.41l-2.26,.34-4.28-5.14,3.66-3.66,15.76,8.09Z" fill="#faa27f" stroke="#231f20" stroke-miterlimit="10"></path>
      <path d="M366.97,413.73s3.62,3.39,4.41,7.93c0,0,.19,1.52,.11,2.8-.08,1.3-1.4,2.23-2.62,1.79-.72-.26-1.46-.94-1.92-2.47l-1.73-4.23-4.42,.96s1.25,6.44-.58,6.93c0,0-2.89,1.15-4.42-4.62,0,0,0,0,0,0-.01,.02-2.85,3.46-9.21,4.23,0,0-15.57,.07-19.36-1.65-.44-.2-.95-.22-1.43-.09l-3.76,.99c-.93,.24-1.59,1.08-1.62,2.04h0c-.01,.41-.27,.77-.65,.91l-2.61,.89-3.3-18.66,8.46-2.69s5-2.31,10-.38l24.43,2.31s2.82-2.52,5.07-1.83c.76,.23,1.58,.18,2.3-.15l2.82-1.28s2.31-1.73,5.96,0c0,0,16.71,7.12,12.59,11.16,0,0-1.79,2.23-7.5-2.06-1.11-.83-2.3-1.56-3.58-2.09-1.77-.74-5.97-1.44-7.46-.7" fill="#faa27f" stroke="#231f20" stroke-miterlimit="10"></path>
      <path d="M360.8,420.5s-.88-1.59-2.56-2.91l-2.83-2.47s-3.08-2.89-5.58,.58" fill="none" stroke="#231f20" stroke-linecap="round" stroke-linejoin="round"></path>
      <line x1="355.8" y1="422.81" x2="352.14" y2="420.12" fill="none" stroke="#231f20" stroke-linecap="round" stroke-linejoin="round"></line>
      <path d="M365.22,419.54l-4.42-3.36c-.23-.17-.55-.17-.77,.01l-1.74,1.42" fill="none" stroke="#231f20" stroke-linecap="round" stroke-linejoin="round"></path>
    </g>
    <g>
      <path d="M31.9,548.84c.23,2.66,.58,5.67,1.09,8.72,0,0,10.79-35.29,46.24-30.74l-6.96-15.34-5.76-5.76c-11.56,6-22.75,4.19-30.4,19.7-3.57,7.24-4.91,15.37-4.2,23.41Z" fill="#56c96e" stroke="#231f20" stroke-miterlimit="10"></path>
      <path d="M131.85,515.05c-31.99,.04-36.78-47.11-4.45-86.36,.11-.13,.31-.04,.29,.13-1.28,13.37,38,61.32,12.26,83.27-2.26,1.93-5.13,2.95-8.1,2.96Z" fill="#56c96e" stroke="#231f20" stroke-miterlimit="10"></path>
      <path d="M129.91,497.44c-20.19-11.98-15.63-47.9,44.18-69.09,.11-.04,.22,.06,.19,.17-.68,1.95-4.64,14.66-6.72,50.51-.55,9.56-14.21,32.31-37.64,18.4Z" fill="#56c96e" stroke="#231f20" stroke-miterlimit="10"></path>
      <path d="M150.8,576.16c.91,7.06-46.99,7.06-46.08,0-.91-7.06,46.99-7.06,46.08,0Z" fill="#231f20" stroke="#231f20" stroke-miterlimit="10"></path>
      <path d="M152.69,638.73c-2.07-.31-54.81,.9-54.94-.98-10.39-4.93-10.83-21.02-10.83-21.02-1.57-21.47,17.8-32.99,17.8-32.99v-7.59c-.91,7.07,46.99,7.06,46.08,0v8.12c25.36,16.64,20.22,52.77,1.89,54.46Z" fill="#f7c27e" stroke="#231f20" stroke-miterlimit="10"></path>
      <path d="M152.37,593.7c.06,4.08-6.34,4.08-6.28,0-.06-4.08,6.34-4.08,6.28,0Z" fill="#fff"></path>
      <path d="M161.8,603.12c.06,4.08-6.34,4.08-6.28,0-.06-4.08,6.34-4.08,6.28,0Z" fill="#fff"></path>
      <path d="M163.37,618.31c.06,4.08-6.34,4.08-6.28,0-.06-4.08,6.34-4.08,6.28,0Z" fill="#fff"></path>
      <path d="M154.99,629.83c.06,4.08-6.34,4.08-6.28,0-.06-4.08,6.34-4.08,6.28,0Z" fill="#fff"></path>
      <path d="M129.33,632.97c.06,4.08-6.34,4.08-6.28,0-.06-4.08,6.34-4.08,6.28,0Z" fill="#fff"></path>
      <path d="M109.43,629.83c.06,4.08-6.34,4.08-6.28,0-.06-4.08,6.34-4.08,6.28,0Z" fill="#fff"></path>
      <path d="M98.44,620.93c.06,4.08-6.34,4.08-6.28,0-.06-4.08,6.34-4.08,6.28,0Z" fill="#fff"></path>
      <path d="M100.01,603.12c.06,4.08-6.34,4.08-6.28,0-.06-4.08,6.34-4.08,6.28,0Z" fill="#fff"></path>
      <path d="M111.53,592.65c.06,4.08-6.34,4.08-6.28,0-.06-4.08,6.34-4.08,6.28,0Z" fill="#fff"></path>
      <path d="M122,602.08c.06,4.08-6.34,4.08-6.28,0-.06-4.08,6.34-4.08,6.28,0Z" fill="#fff"></path>
      <path d="M109.96,610.45c.06,4.08-6.34,4.08-6.28,0-.06-4.08,6.34-4.08,6.28,0Z" fill="#fff"></path>
      <path d="M120.43,620.93c.06,4.08-6.34,4.08-6.28,0-.06-4.08,6.34-4.08,6.28,0Z" fill="#fff"></path>
      <path d="M131.95,612.02c.06,4.08-6.34,4.08-6.28,0-.06-4.08,6.34-4.08,6.28,0Z" fill="#fff"></path>
      <path d="M134.04,594.22c.06,4.08-6.34,4.08-6.28,0-.06-4.08,6.34-4.08,6.28,0Z" fill="#fff"></path>
      <path d="M143.47,605.22c.06,4.08-6.34,4.08-6.28,0-.06-4.08,6.34-4.08,6.28,0Z" fill="#fff"></path>
      <path d="M150.8,612.55c.06,4.08-6.34,4.08-6.28,0-.06-4.08,6.34-4.08,6.28,0Z" fill="#fff"></path>
      <path d="M140.33,623.02c.06,4.08-6.34,4.08-6.28,0-.06-4.08,6.34-4.08,6.28,0Z" fill="#fff"></path>
      <path d="M179.07,540.81c-17.27-14.07-41.82,5.24-17.28,29.32,0,0,12.57,11.52,17.8,23.56,0,0,24.09-17.28,24.61-40.84,0,0,0-24.09-25.13-12.04Z" fill="#56c96e" stroke="#231f20" stroke-miterlimit="10"></path>
      <path d="M32.49,537.9c27.13-47.83,38.72,1.36,79.56-5.46,.62-54.99-78.96-52.67-79.56,5.46Z" fill="#56c96e" stroke="#231f20" stroke-miterlimit="10"></path>
      <path d="M104.72,583.75s19.33,9.92,46.08,.52" fill="none" stroke="#231f20" stroke-linecap="round" stroke-linejoin="round"></path>
      <path d="M132.61,558.38s11.38-47.78,40.33-24.61c4.07,3.26,6.62,8.06,7.86,13.12,1.92,7.85,4.36,22.14,1.29,35.95" fill="none" stroke="#231f20" stroke-linecap="round" stroke-linejoin="round"></path>
      <path d="M169.58,432.66s-53.47,38.68-35.27,143.35" fill="none" stroke="#231f20" stroke-linecap="round" stroke-linejoin="round"></path>
      <path d="M53.54,506.61s70.54-1.14,72.81,68.26" fill="none" stroke="#231f20" stroke-linecap="round" stroke-linejoin="round"></path>
    </g>
    <g>
      <rect x="729.11" y="586.88" width="16.04" height="28.92" fill="#e3e4e5" stroke="#231f20" stroke-miterlimit="10"></rect>
      <rect x="799.99" y="586.88" width="16.04" height="28.92" fill="#e3e4e5" stroke="#231f20" stroke-miterlimit="10"></rect>
      <path d="M693.85,413.51h128.02c2.67,0,4.84,2.17,4.84,4.84v163.7c0,2.67-2.17,4.84-4.84,4.84h-128.02v-173.38Z" fill="#e3e4e5" stroke="#231f20" stroke-miterlimit="10"></path>
      <rect x="669.51" y="413.51" width="129.41" height="173.38" rx="4.84" ry="4.84" fill="#fff" stroke="#231f20" stroke-miterlimit="10"></rect>
      <rect x="680.95" y="586.88" width="16.04" height="28.92" fill="#fff" stroke="#231f20" stroke-miterlimit="10"></rect>
      <rect x="773.19" y="586.88" width="16.04" height="28.92" fill="#fff" stroke="#231f20" stroke-miterlimit="10"></rect>
      <path d="M678.21,460.42v-33.43c0-2.87,2.33-5.2,5.2-5.2h101.62c2.87,0,5.2,2.33,5.2,5.2v33.43c0,2.87-2.33,5.2-5.2,5.2h-101.62c-2.87,0-5.2-2.33-5.2-5.2Z" fill="#e3e4e5" stroke="#231f20" stroke-miterlimit="10"></path>
      <circle cx="734.22" cy="443.71" r="5.2" fill="#fff" stroke="#231f20" stroke-miterlimit="10"></circle>
      <path d="M678.21,516.02v-33.43c0-2.87,2.33-5.2,5.2-5.2h101.62c2.87,0,5.2,2.33,5.2,5.2v33.43c0,2.87-2.33,5.2-5.2,5.2h-101.62c-2.87,0-5.2-2.33-5.2-5.2Z" fill="#e3e4e5" stroke="#231f20" stroke-miterlimit="10"></path>
      <circle cx="734.22" cy="499.3" r="5.2" fill="#fff" stroke="#231f20" stroke-miterlimit="10"></circle>
      <path d="M678.21,571.61v-33.43c0-2.87,2.33-5.2,5.2-5.2h101.62c2.87,0,5.2,2.33,5.2,5.2v33.43c0,2.87-2.33,5.2-5.2,5.2h-101.62c-2.87,0-5.2-2.33-5.2-5.2Z" fill="#e3e4e5" stroke="#231f20" stroke-miterlimit="10"></path>
      <circle cx="734.22" cy="554.89" r="5.2" fill="#fff" stroke="#231f20" stroke-miterlimit="10"></circle>
      <g>
        <path d="M748.01,364.56s1.17-26.82-1.77-40.08c-.49-2.24-1.55-4.31-3.07-6.02-6-6.75-24.64-27.33-40.47-40.61,0,0,14.83-3.09,28.83,5.36v9.06s3.09-7.21,3.09-7.21c0,0,17.3,10.3,15.65,38.52l-.82,27.18-1.44,13.8Z" fill="#56c96e" stroke="#231f20" stroke-miterlimit="10"></path>
        <path d="M718.66,386.91c0,13.01,9.32,24.15,22.12,26.46h0c14.63,2.61,28.6-7.14,31.21-21.76,.28-1.55,.42-3.12,.42-4.69,0-6.57-2.4-12.92-6.76-17.83l-29.12-.2-10.86-.08c-4.52,4.95-7.02,11.41-7.01,18.11Z" fill="#ff973f" stroke="#231f20" stroke-miterlimit="10"></path>
        <path d="M751.21,368.98v-2.44c-.04-3.21,1.24-6.29,3.52-8.54l40.71-40.01s-19.59-2.47-28.91,5.33l-.19,10.65-3.23-8.37s-17.5,7.42-15.97,43.36l4.07,.03Z" fill="#56c96e" stroke="#231f20" stroke-miterlimit="10"></path>
        <path d="M741.63,368.91l-2.23-18.22c-.16-1.3-.72-2.51-1.61-3.47-5.83-6.24-28.9-30.68-42.29-41.77,0,0,15.45-1.44,29.24,5.56l.41,9.68,3.09-7.42s15.04,8.45,15.45,37.87v17.75s-2.06,.01-2.06,.01Z" fill="#56c96e" stroke="#231f20" stroke-miterlimit="10"></path>
      </g>
    </g>
  </g>
  <g>
    <path d="M435.17,244.28V54.38c0-2.41,1.95-4.36,4.36-4.36h180.19c2.41,0,4.36,1.95,4.36,4.36V244.28c0,2.41-1.95,4.36-4.36,4.36h-78.53c-11.63,29.37-56.59,38.84-56.59,38.84,22.25-13.35,25.27-30.37,25.22-38.84h-70.29c-2.41,0-4.36-1.95-4.36-4.36Z" fill="#f7c27e" stroke="#231f20" stroke-miterlimit="10"></path>
    <path d="M435.17,54.38v18.15s188.91,0,188.91,0v-18.15c0-2.41-1.95-4.36-4.36-4.36h-180.19c-2.41,0-4.36,1.95-4.36,4.36Z" fill="#fff" stroke="#231f20" stroke-miterlimit="10"></path>
    <g>
      <rect x="494.32" y="57.74" width="122.71" height="7.06" transform="translate(1111.34 122.54) rotate(-180)" fill="#e3e4e5" stroke="#231f20" stroke-miterlimit="10"></rect>
      <rect x="442.23" y="57.74" width="46.79" height="7.06" transform="translate(931.25 122.54) rotate(-180)" fill="#e3e4e5" stroke="#231f20" stroke-miterlimit="10"></rect>
    </g>
    <rect x="455.03" y="81.35" width="74.15" height="67.09" fill="#fff" stroke="#231f20" stroke-miterlimit="10"></rect>
    <circle cx="513.3" cy="98.13" r="7.94" fill="#f7c27e" stroke="#231f20" stroke-miterlimit="10"></circle>
    <path d="M455.03,111.33v37.11s74.15,0,74.15,0v-35.58c-6.96-1.44-17.47-.95-27.37,9.98,0,0-11.48,15.89-23.83,2.65,0,0-12.53-14.2-22.95-14.16Z" fill="#5ca0c3" stroke="#231f20" stroke-miterlimit="10"></path>
    <g>
      <g>
        <line x1="609.96" y1="159.04" x2="536.69" y2="159.04" fill="none" stroke="#231f20" stroke-linecap="round" stroke-linejoin="round"></line>
        <line x1="609.96" y1="168.75" x2="536.69" y2="168.75" fill="none" stroke="#231f20" stroke-linecap="round" stroke-linejoin="round"></line>
        <line x1="609.96" y1="178.46" x2="536.69" y2="178.46" fill="none" stroke="#231f20" stroke-linecap="round" stroke-linejoin="round"></line>
        <line x1="609.96" y1="188.17" x2="536.69" y2="188.17" fill="none" stroke="#231f20" stroke-linecap="round" stroke-linejoin="round"></line>
        <line x1="609.96" y1="197.88" x2="536.69" y2="197.88" fill="none" stroke="#231f20" stroke-linecap="round" stroke-linejoin="round"></line>
        <line x1="609.96" y1="207.59" x2="536.69" y2="207.59" fill="none" stroke="#231f20" stroke-linecap="round" stroke-linejoin="round"></line>
        <line x1="609.96" y1="217.3" x2="536.69" y2="217.3" fill="none" stroke="#231f20" stroke-linecap="round" stroke-linejoin="round"></line>
        <line x1="609.96" y1="227.01" x2="536.69" y2="227.01" fill="none" stroke="#231f20" stroke-linecap="round" stroke-linejoin="round"></line>
        <line x1="609.96" y1="236.72" x2="536.69" y2="236.72" fill="none" stroke="#231f20" stroke-linecap="round" stroke-linejoin="round"></line>
      </g>
      <g>
        <line x1="522.57" y1="159.04" x2="449.3" y2="159.04" fill="none" stroke="#231f20" stroke-linecap="round" stroke-linejoin="round"></line>
        <line x1="522.57" y1="168.75" x2="449.3" y2="168.75" fill="none" stroke="#231f20" stroke-linecap="round" stroke-linejoin="round"></line>
        <line x1="522.57" y1="178.46" x2="449.3" y2="178.46" fill="none" stroke="#231f20" stroke-linecap="round" stroke-linejoin="round"></line>
        <line x1="522.57" y1="188.17" x2="449.3" y2="188.17" fill="none" stroke="#231f20" stroke-linecap="round" stroke-linejoin="round"></line>
        <line x1="522.57" y1="197.88" x2="449.3" y2="197.88" fill="none" stroke="#231f20" stroke-linecap="round" stroke-linejoin="round"></line>
        <line x1="522.57" y1="207.59" x2="449.3" y2="207.59" fill="none" stroke="#231f20" stroke-linecap="round" stroke-linejoin="round"></line>
        <line x1="522.57" y1="217.3" x2="449.3" y2="217.3" fill="none" stroke="#231f20" stroke-linecap="round" stroke-linejoin="round"></line>
        <line x1="522.57" y1="227.01" x2="449.3" y2="227.01" fill="none" stroke="#231f20" stroke-linecap="round" stroke-linejoin="round"></line>
        <line x1="522.57" y1="236.72" x2="449.3" y2="236.72" fill="none" stroke="#231f20" stroke-linecap="round" stroke-linejoin="round"></line>
      </g>
    </g>
    <path d="M563.74,98.93s-.21,1.26,1.18,6.4l3.26,11.8,3.19,11.54,3.19-11.54,3.56-12.89c.89-4.24-.26-5.32-.26-5.32h10.89s-1.25,.77-2.51,3.57l4.05,14.64,3.19,11.54,3.19-11.54,3.56-12.89c.89-4.24-.26-5.32-.26-5.32h10.89s-2.03,1.26-3.54,6.41l-3.26,11.8-4.41,15.95h-7.4s-4.41-15.95-4.41-15.95l-2.94-10.65-2.94,10.65-4.41,15.95h-7.4s-4.41-15.95-4.41-15.95l-3.56-12.89c-1.27-4.24-2.04-5.32-2.04-5.32h3.61Z" fill="#fff" stroke="#231f20" stroke-miterlimit="10"></path>
  </g>
</svg>
