<svg id="eb6856ce-eea5-4a1f-8004-50b8f77fe510" data-name="Layer 1" xmlns="http://www.w3.org/2000/svg" width="865.76" height="682.89" viewBox="0 0 865.76 682.89"><g id="bdc2af0e-601d-4eba-8e5d-4038dcfb59b0" data-name="freesvgillustration--Shadow--inject-11"><ellipse id="bec7649a-dfc6-490c-899b-7778edf6f126" data-name="freesvgillustration--path--inject-11" cx="432.88" cy="525.15" rx="277.44" ry="16.2" fill="#f5f5f5"/></g><polygon points="528.04 71.64 198.18 71.64 219.89 520.86 549.75 520.86 528.04 71.64" fill="#8ecb64"/><polygon points="528.04 71.64 198.18 71.64 219.89 520.86 549.75 520.86 528.04 71.64" opacity="0.2" style="isolation:isolate"/><polygon points="531.09 71.64 201.23 71.64 222.95 520.86 552.81 520.86 531.09 71.64" fill="#8ecb64"/><polygon points="513.67 86.75 216.31 86.75 237.09 500.56 495.66 500.21 538.63 462.12 513.67 86.75" opacity="0.2" style="isolation:isolate"/><path d="M516,86.74a3371.29,3371.29,0,0,0,30,370.4q-35.34,24.33-70.33,48.65H253.2a3378.43,3378.43,0,0,1-36.89-419Z" fill="#fff"/><path d="M545.92,457.14q-35.34,24.33-70.33,48.65,7.65-32.19,15.93-64.39Z" fill="#ebebeb"/><path d="M296.94,124.6q.85,22.72,2,45.47H253.46q-1.14-22.74-2-45.47h45.46m4.64-4.79H246.52q1,27.51,2.39,55.06H304q-1.44-27.54-2.39-55.06Z" fill="#ccc"/><path d="M482.71,141.67H327c-.14-3.42-.27-6.85-.4-10.27h155.7C482.42,134.82,482.56,138.25,482.71,141.67Z" fill="#ccc"/><path d="M449.81,163.28H328c-.15-3.44-.33-6.86-.47-10.28H449.32C449.49,156.43,449.65,159.85,449.81,163.28Z" fill="#ccc"/><path d="M301.41,213.66q1.43,22.76,3.19,45.5H259.13q-1.77-22.76-3.2-45.5h45.48m4.49-4.79H250.84q1.69,27.54,3.85,55.09h55.13q-2.15-27.54-3.86-55.09Z" fill="#ccc"/><path d="M389.1,230.74H331.86c-.23-3.43-.47-6.85-.69-10.28h57.24C388.62,223.89,388.85,227.31,389.1,230.74Z" fill="#ccc"/><path d="M443.28,230.74H401.2c-.23-3.43-.47-6.85-.69-10.28H442.6C442.81,223.89,443,227.31,443.28,230.74Z" fill="#e0e0e0"/><path d="M469.7,252.37H333.43c-.25-3.44-.5-6.86-.76-10.29H468.94C469.2,245.51,469.44,248.93,469.7,252.37Z" fill="#ccc"/><path d="M308.23,302.76q2.06,22.75,4.41,45.51H267.17q-2.37-22.75-4.41-45.51h45.47m4.38-4.79H257.54q2.43,27.55,5.32,55.1h55.08Q315.07,325.52,312.61,298Z" fill="#ccc"/><path d="M496,331.19H340.26l1,10.28H497Z" fill="#ccc"/><path d="M460.07,309.57H338.21c.32,3.42.63,6.86,1,10.28H461C460.7,316.43,460.37,313,460.07,309.57Z" fill="#e0e0e0"/><path d="M317.44,391.87q2.65,22.74,5.62,45.48H277.58q-3-22.71-5.62-45.48h45.48m4.29-4.8H266.61q3.15,27.56,6.8,55.08h55q-3.63-27.52-6.8-55.08Z" fill="#ccc"/><path d="M504.56,408.91H348.83c-.42-3.44-.83-6.86-1.23-10.29H503.31C503.73,402.1,504.13,405.52,504.56,408.91Z" fill="#ccc"/><path d="M422.42,430.56H351.53c-.44-3.42-.87-6.86-1.3-10.28h70.89C421.55,423.7,422,427.14,422.42,430.56Z" fill="#ccc"/><path d="M464.75,430.56H434.14c-.44-3.42-.87-6.86-1.3-10.28h30.61C463.88,423.7,464.36,427.14,464.75,430.56Z" fill="#e0e0e0"/><path d="M276.91,163.58l-2-3.21c-4.4-7-13.39-13.26-16.49-15.09l2.31-4.11A64.93,64.93,0,0,1,276.83,155c6.92-9.43,17.17-19.18,31.19-29.65l3,3.86c-15,11.2-25.44,21.46-32.05,31.34Z" fill="#ccc"/><path d="M282.35,252.67l-2.1-3.21c-4.58-7-13.74-13.28-16.89-15.11l2.19-4.11a67.29,67.29,0,0,1,16.5,13.85c6.67-9.44,16.64-19.18,30.39-29.67,1,1.29,2.05,2.57,3.06,3.88-14.66,11.21-24.87,21.46-31.2,31.35C283.64,250.65,283,251.66,282.35,252.67Z" fill="#ccc"/><path d="M434.5,481.11c-8.44,0-13.31-3.12-17.6-5.87s-8-5.12-15.11-5.12-10.3,2.49-13.67,5.12-7.48,5.87-15.92,5.87-13.31-3.12-17.59-5.87-8-5.12-15.11-5.12-10.3,2.49-13.66,5.12-7.49,5.87-15.92,5.87-13.3-3.12-17.6-5.87-8-5.12-15.11-5.12c-.18-1.43-.38-2.75-.57-4.12,8.44,0,13.29,3.12,17.59,5.87s8,5.12,15.09,5.12,10.3-2.49,13.67-5.12,7.5-5.87,15.94-5.87,13.28,3.12,17.57,5.87,8,5.12,15.11,5.12,10.3-2.49,13.67-5.12,7.49-5.87,15.94-5.87,13.29,3.12,17.58,5.87,8,5.12,15.11,5.12C434.1,478.36,434.31,479.74,434.5,481.11Z" fill="#ebebeb"/><path d="M446.6,82.76c-4.83-12.88-16-21.34-28-21.34H394.08a9.32,9.32,0,0,1-8.52-5.72,22.91,22.91,0,0,0-20.85-14,20.27,20.27,0,0,0-19.49,14,8.25,8.25,0,0,1-8,5.72H312.77c-12,0-22.39,8.5-26,21.34l-1.43,5.11H448.49Z" fill="#8ecb64"/><path d="M446.6,82.76c-4.83-12.88-16-21.34-28-21.34H394.08a9.32,9.32,0,0,1-8.52-5.72,22.91,22.91,0,0,0-20.85-14,20.27,20.27,0,0,0-19.49,14,8.25,8.25,0,0,1-8,5.72H312.77c-12,0-22.39,8.5-26,21.34l-1.43,5.11H448.49Z" opacity="0.2" style="isolation:isolate"/><path d="M447.48,92.9H286.93a5.34,5.34,0,0,1-5.28-5h0a4.77,4.77,0,0,1,4.5-5H447a5.36,5.36,0,0,1,5.28,5h0a4.77,4.77,0,0,1-4.48,5Z" fill="#8ecb64"/><path d="M504.59,239.09s4.37-9.31,1.63-16.45S453,204,453,204s-11.51,0-11,6.59,42.24,31.82,45.53,34S503.48,251.71,504.59,239.09Z" fill="#f9b499"/><path d="M457.18,194.77a97.88,97.88,0,0,1-9.13-3.91c-4.36-2.18.42,7.84,2.18,8.27s6,1.31,6,1.31Z" fill="#f9b499"/><path d="M306.56,292.3,281.34,323l2.17,4.4,35.67-8.69L570.24,172.57A21.75,21.75,0,0,0,578,142.81c-.09-.16-.19-.32-.29-.48h0a21.73,21.73,0,0,0-30-6.9l-.29.18Z" fill="#a7a9ac"/><path d="M424.52,241.16a.5.5,0,0,1-.42-.22.49.49,0,0,1,.15-.69l8.18-5.29a.5.5,0,0,1,.55.84l-8.19,5.28A.45.45,0,0,1,424.52,241.16Z" fill="#ccc"/><path d="M442.71,229.47a.51.51,0,0,1-.43-.23.5.5,0,0,1,.15-.69l60.48-38.92a.5.5,0,0,1,.54.84L443,229.39A.56.56,0,0,1,442.71,229.47Z" fill="#ccc"/><path d="M283.67,322.37s-6.27,2.62-5.3,5.26,10-3.75,10-3.75Z" fill="#ccc"/><path d="M281.34,323l2.17,4.4,35.67-8.69c-19.76-7.68-12.62-26.34-12.62-26.34Z" fill="#939598"/><path d="M577.74,142.19a21.73,21.73,0,0,0-30-6.9l-.29.18L503.7,164a25.64,25.64,0,0,0-1.77,9.44,24.49,24.49,0,0,0,23.89,25l44.5-25.89a21.75,21.75,0,0,0,7.74-29.78Z" fill="#ccc"/><path d="M577.74,142.19a21.73,21.73,0,0,0-30-6.9l-.29.18-33.27,21.68a24.25,24.25,0,0,0-2.44,10.64A23.87,23.87,0,0,0,535.33,192H537l33.31-19.38a21.75,21.75,0,0,0,7.83-29.75C578,142.63,577.88,142.41,577.74,142.19Z" fill="#939598"/><path d="M429.34,204.79s-4.88,0-4.88,2.22-1.29,10.08,1.53,9.86,2.58-5.16,2.82-6.89S429.34,204.79,429.34,204.79Z" fill="#f9b499"/><path d="M434.66,196.77s-4.36-1.35-5.36,1.33-2,15.42,1,15.08S434,201.47,434.66,196.77Z" fill="#f9b499"/><path d="M441.37,197.43s-5-4.35-6.71-.66-2,14.11,0,14.11,5-4.35,5.71-6.69A46.5,46.5,0,0,0,441.37,197.43Z" fill="#f9b499"/><path d="M448.49,199.45s-6.37-5.36-7.38-4.35-5,11.33-2,13.4,6.85-7.19,6.85-7.19Z" fill="#f9b499"/><path d="M376.13,250.63s-3.59-13.64,2.13-11.84,9,14,8.61,15.42-3.22,2.14-4.66,1.8" fill="#f9b499"/><path d="M467.28,233.61a22.65,22.65,0,0,1,14.8-11c10.43-2.2,24.2,4.94,25.79,16.45s-7.13,17-12.62,17-10.42-7.68-10.42-7.68S467.28,241.83,467.28,233.61Z" fill="#0071f2"/><path d="M467.28,233.61a22.65,22.65,0,0,1,14.8-11c10.43-2.2,24.2,4.94,25.79,16.45s-7.13,17-12.62,17-10.42-7.68-10.42-7.68S467.28,241.83,467.28,233.61Z" opacity="0.2"/><path d="M320.27,355.94l17.56-46.64A10.73,10.73,0,0,1,330.7,312c-4.4,0-14.8-1.63-12.1-3.28S331.74,300,331.74,300s-7.66,1.65-9.86,0-3.28-3.86-1.65-4.4,4.94,0,11-2.2S340,289,344.91,289s9.34,8.77,9.34,11.51-3.85,54.85-3.85,57,0,4.4-14.26,6.05S319.73,362,320.27,355.94Z" fill="#f9b499"/><path d="M337.27,344.41s-17.54,4.94-20.83,12.62-2.74,19.19,3.83,25.79,9.34,8.22,16.46,5.48,8.79-7.14,9.33-11.53S350.44,357.57,337.27,344.41Z" fill="#0071f2"/><path d="M337.27,344.41s-17.54,4.94-20.83,12.62-2.74,19.19,3.83,25.79,9.34,8.22,16.46,5.48,8.79-7.14,9.33-11.53S350.44,357.57,337.27,344.41Z" opacity="0.2"/><path d="M330.15,577s-15.36-7.13-21.39-4.39-6.05,5.48,1.63,17.56,29.08,26.88,36.3,23.57.54-25.22.54-25.22Z" fill="#0071f2"/><path d="M319.18,594a85.06,85.06,0,0,1-13.3-19.66c-2.83,2.5-1.62,6.17,4.51,15.83,7.68,12.1,29.08,26.88,36.3,23.57a6.52,6.52,0,0,0,3-5.46C339.61,612.52,329.18,605,319.18,594Z" fill="#0071f2"/><path d="M319.18,594a85.06,85.06,0,0,1-13.3-19.66c-2.83,2.5-1.62,6.17,4.51,15.83,7.68,12.1,29.08,26.88,36.3,23.57a6.52,6.52,0,0,0,3-5.46C339.61,612.52,329.18,605,319.18,594Z" opacity="0.2"/><path d="M409.13,409.13l.55,16.48s-33.45,12.6-49.91,24.19-27.42,20.29-29.07,31.26-.55,96-.55,96-4.94,1.09-3.28,4.38,4.92,15.36,9.31,16.45,9.88,3.31,11,.57,4.4-19.2,6.59-24.68,6-31.24,9.32-49.38a191.89,191.89,0,0,0,3.29-30.71,177.56,177.56,0,0,0,34-8.23c19.2-6.59,47.16-18.65,47.16-18.65S470,523.26,475,534.27s24.19,35.65,28,42.78,28,37.85,28,37.85,9.34-8.23,15.37-8.23h8.22s-9.88-27.42-18.15-43.89-25.22-43.33-25.22-43.33-15.34-96-15.91-102.58C494.14,404.21,486,385.1,486,385.1S459.6,379.51,409.13,409.13Z" fill="#2f2e41"/><path d="M530.9,614.84a71.7,71.7,0,0,0-3.83,7.12c-.54,1.65-12.62,3.31-11,8.79s14.26,9.86,20.29,10.42,18.14-7.68,20.3-9.88c1.29-1.29,3.23-9.82,2.2-16.45a17,17,0,0,0-4.4-8.23S544.07,590.7,530.9,614.84Z" fill="#0071f2"/><path d="M558.89,614.84a16.17,16.17,0,0,0-3.73-7.5,16.77,16.77,0,0,0-12.1,5.3c-5.49,6.58-2.74,21.4-9.34,23.59-4.9,1.64-13.47-4.35-17.5-7.5a3.17,3.17,0,0,0,0,2c1.64,5.48,14.26,9.86,20.29,10.42s18.14-7.68,20.3-9.88C558,630,559.92,621.47,558.89,614.84Z" fill="#0071f2"/><path d="M558.89,614.84a16.17,16.17,0,0,0-3.73-7.5,16.77,16.77,0,0,0-12.1,5.3c-5.49,6.58-2.74,21.4-9.34,23.59-4.9,1.64-13.47-4.35-17.5-7.5a3.17,3.17,0,0,0,0,2c1.64,5.48,14.26,9.86,20.29,10.42s18.14-7.68,20.3-9.88C558,630,559.92,621.47,558.89,614.84Z" opacity="0.2"/><path d="M544.61,618.67c-2.18,9.88.57,16.46-8.22,22.5,6,.55,18.14-7.68,20.3-9.88,1.29-1.29,3.23-9.82,2.2-16.45a13.08,13.08,0,0,0-1.35-3.93h-.85S546.81,608.81,544.61,618.67Z" fill="#0071f2"/><path d="M417.8,347a4,4,0,0,0-.18.68C417.86,347,417.94,346.68,417.8,347Z" fill="#263238"/><path d="M420.86,257.44,408.31,233a58.38,58.38,0,0,0-7.54-24c-7.18-12.91-16.85-20.17-33-15.43s-15.4,29.06-15.4,29.06-.1,2.38.07,5.2c-2,7.47.4,18.24,6.88,28.2,9.33,14.35,23.68,21.57,32,16.13a11.23,11.23,0,0,0,2.59-2.37l1.43,4.11Z" fill="#f9b499"/><path d="M383.63,177.38a58.18,58.18,0,0,0-17.6,3.53c-9.42,3.32-11.74,16.43-19.95,21.13s-4.69-4-8.81-1.78-8.2,22.89.59,28.76,21.71-1.76,21.71-1.76-1.17,4,2.34,5.28a61.29,61.29,0,0,0,6.47,1.76s-.6,7.06,4.68,6.45.61-8.79.61-8.79,10,19.36,17.62,21.72,18.77-8.23,21.7-12.93.58-38.13-5.87-51S383.63,177.38,383.63,177.38Z" fill="#2f2e41"/><path d="M478.74,229.78c-9.32,1.09-33.45,17.54-35.11,19.19s-8.22,5.49-11,7.68c0,0-56.45,35.11-61.43,38.32s-14.8,9.88-14.26,12.09-29.08,50.41-29.08,50.41-8.77,11.54-.54,21.94,15.91,3.31,19.74,1.11,34-30.73,34-30.73l27.82,66.54s38.53-25.83,79.69-24.2L461.18,284.62s37.86-28.51,38.95-38.31S488.11,228.67,478.74,229.78Z" fill="#0071f2"/><path d="M417.56,255.57a150.45,150.45,0,0,0-19.11,12.74c-6.05,5.38-12.13,17.2-12.13,17.2s29.13-18.5,35.58-22.07a145.57,145.57,0,0,0,13.32-8.62S424.74,253.77,417.56,255.57Z" fill="#0071f2"/><path d="M417.56,255.57a150.45,150.45,0,0,0-19.11,12.74c-6.05,5.38-12.13,17.2-12.13,17.2s29.13-18.5,35.58-22.07a145.57,145.57,0,0,0,13.32-8.62S424.74,253.77,417.56,255.57Z" opacity="0.2"/></svg>